<?xml version="1.0" encoding="utf-8"?>
<!-- Generator: Adobe Illustrator 24.3.0, SVG Export Plug-In . SVG Version: 6.00 Build 0)  -->
<svg version="1.1" id="Layer_1" xmlns="http://www.w3.org/2000/svg" xmlns:xlink="http://www.w3.org/1999/xlink" x="0px" y="0px"
	 viewBox="0 0 84.01 30.46" style="enable-background:new 0 0 84.01 30.46;" xml:space="preserve">
<path d="M26.51,22.84c-0.32-0.73-0.59-1.38-0.82-1.95s-0.42-1.08-0.59-1.53s-0.38-1.03-0.63-1.74s-0.56-1.58-0.9-2.58
	c-0.34-1.02-0.66-1.95-0.96-2.8s-0.58-1.63-0.85-2.35c-0.53-1.42-1.08-2.74-1.67-3.97c0.02-0.4,0.04-0.74,0.05-1.04
	s0.02-0.53,0.04-0.72c0.01-0.09,0.02-0.22,0.02-0.37s0-0.33,0-0.53c0-0.29-0.02-0.54-0.05-0.75s-0.11-0.37-0.21-0.49
	s-0.25-0.21-0.44-0.26s-0.43-0.08-0.74-0.08c-0.69,0-1.72,1.66-3.09,4.99c-0.2,0.5-0.63,1.3-1.28,2.39
	c-0.47,0.76-0.84,1.36-1.12,1.79s-0.46,0.71-0.55,0.83c-0.29,0.39-0.55,0.72-0.76,1s-0.4,0.52-0.54,0.7
	c-0.13,0.19-0.28,0.4-0.47,0.63s-0.38,0.5-0.61,0.81c-0.22,0.29-0.42,0.56-0.58,0.79s-0.3,0.43-0.42,0.6
	c-0.27,0.36-0.51,0.69-0.71,0.98s-0.39,0.56-0.55,0.79c-0.15,0.23-0.35,0.52-0.58,0.86s-0.5,0.74-0.81,1.21
	c-0.63,0.91-1.2,1.74-1.71,2.47s-1.01,1.42-1.5,2.07c-0.25,0.35-0.61,0.8-1.09,1.34c-0.5,0.56-0.83,0.85-0.97,0.86
	c-0.43,0.08-0.78,0.17-1.03,0.27S0,27.32,0,27.55c0,0.42,0.29,0.82,0.88,1.2c0.52,0.3,1.16,0.46,1.93,0.46
	c0.61,0,1.24-0.31,1.88-0.93c0.66-0.62,1.45-1.6,2.39-2.94c0.96-1.35,1.59-2.23,1.9-2.64c0.32-0.4,0.65-0.63,1-0.69
	c0.77-0.13,1.51-0.25,2.2-0.36s1.35-0.23,1.99-0.35s1.25-0.25,1.85-0.38s1.19-0.28,1.78-0.44c0.18-0.05,0.36-0.11,0.56-0.18
	s0.4-0.13,0.61-0.19s0.4-0.11,0.57-0.16s0.32-0.07,0.44-0.07c0.21,0,0.41,0,0.59-0.01s0.36-0.03,0.53-0.07s0.33-0.11,0.48-0.19
	s0.31-0.21,0.47-0.38c0.15,0.32,0.4,0.98,0.74,1.99c0.08,0.25,0.16,0.45,0.23,0.62s0.14,0.33,0.2,0.47s0.13,0.29,0.19,0.42
	s0.13,0.28,0.18,0.45c0.22,0.56,0.51,1.21,0.87,1.94s0.75,1.43,1.19,2.1c0.22,0.33,0.43,0.6,0.63,0.82s0.38,0.39,0.54,0.52
	c0.13,0.09,0.3,0.14,0.51,0.14c0.48,0,0.87-0.17,1.17-0.5s0.45-0.74,0.45-1.2c0-0.45-0.38-1.18-1.12-2.21
	C27.06,23.76,26.62,23.11,26.51,22.84z M19.35,17.13c-0.67,0.18-1.34,0.36-2.02,0.54c-0.3,0.07-0.57,0.13-0.78,0.18
	s-0.42,0.1-0.61,0.15s-0.38,0.09-0.59,0.14s-0.45,0.11-0.73,0.18c-0.16,0.04-0.38,0.08-0.64,0.12s-0.54,0.09-0.83,0.13
	s-0.57,0.08-0.84,0.11s-0.5,0.04-0.68,0.04c-0.11,0-0.22-0.02-0.35-0.07c0.55-0.98,1.09-1.91,1.63-2.78
	c0.53-0.87,1.07-1.71,1.62-2.54s1.11-1.65,1.7-2.47s1.21-1.68,1.86-2.57c0.27,0.54,0.54,1.15,0.82,1.85s0.54,1.41,0.81,2.15
	s0.52,1.49,0.76,2.23s0.47,1.44,0.69,2.08C20.62,16.78,20.02,16.95,19.35,17.13z M49.45,1.07c0.35,0.42,0.53,0.76,0.53,1.02
	c0,0.35-0.53,1.29-1.58,2.81c-0.21,0.32-0.48,0.71-0.82,1.17s-0.72,1-1.17,1.63s-0.84,1.16-1.18,1.63s-0.62,0.85-0.84,1.15
	c-1.83,2.6-3.11,4.43-3.85,5.48c-0.36,0.53-0.78,1.14-1.26,1.85s-1.01,1.5-1.61,2.39c-0.39,0.59-0.93,1.38-1.63,2.37
	c-0.34,0.5-0.66,0.99-0.97,1.47s-0.59,0.93-0.86,1.38c-0.14,0.28-0.25,0.5-0.32,0.67s-0.17,0.36-0.3,0.6
	c-0.41,0.76-0.93,1.58-1.55,2.44c-0.63,0.89-1.03,1.34-1.2,1.34c-0.29,0-0.59-0.15-0.9-0.46s-0.46-0.61-0.46-0.91
	c0-0.11,0.05-0.28,0.14-0.53c1.05-2.4,2.2-4.51,3.45-6.31c0.18-0.25,0.38-0.53,0.61-0.86s0.48-0.7,0.75-1.11
	c0.28-0.41,0.53-0.77,0.74-1.09s0.39-0.58,0.54-0.79c0.04-0.05,0.09-0.13,0.18-0.24s0.19-0.25,0.32-0.41
	c0.13-0.18,0.25-0.33,0.35-0.47s0.19-0.27,0.26-0.39c0.26-0.41,0.52-0.83,0.8-1.26c0.28-0.43,0.57-0.87,0.87-1.33
	s0.59-0.89,0.87-1.29s0.53-0.78,0.76-1.12c0.49-0.7,0.99-1.44,1.49-2.2s0.99-1.51,1.49-2.25c0.06-0.09,0.19-0.3,0.39-0.61
	s0.47-0.75,0.81-1.31S44.96,4.46,45.28,4s0.62-0.88,0.9-1.26c0.57-0.77,1.18-1.46,1.81-2.06c0.05-0.05,0.13-0.1,0.25-0.16
	s0.23-0.09,0.33-0.09C48.8,0.44,49.1,0.65,49.45,1.07z M84.01,1.51c0,0.14-0.02,0.26-0.07,0.35s-0.12,0.21-0.23,0.35
	c-0.09,0.14-0.18,0.26-0.25,0.37s-0.11,0.21-0.11,0.3c0,0.02-0.01,0.06-0.03,0.12s-0.04,0.15-0.06,0.26
	c-0.06,0.21-0.11,0.38-0.16,0.52s-0.08,0.23-0.09,0.29c-0.12,0.41-0.2,0.81-0.25,1.2s-0.07,0.81-0.07,1.28
	c0,0.87-0.04,1.75-0.11,2.64c-0.02,0.45-0.06,0.91-0.11,1.4s-0.11,1-0.17,1.54s-0.11,1.05-0.17,1.55s-0.11,0.97-0.17,1.42
	c-0.08,0.82-0.14,1.67-0.18,2.56s-0.06,1.81-0.06,2.77c0,0.64,0.01,1.47,0.04,2.47s0.05,2.16,0.07,3.47
	c0.14,0.14,0.36,0.32,0.65,0.53c0.33,0.21,0.57,0.39,0.71,0.54s0.22,0.34,0.22,0.59c0,0.45-0.23,0.88-0.7,1.3
	c-0.48,0.42-0.94,0.63-1.39,0.63c-1.18,0-1.97-0.8-2.37-2.39c-0.41-1.62-0.62-3.25-0.62-4.9c0-0.53,0.04-1.05,0.11-1.58
	s0.13-1.06,0.19-1.6c0.04-0.38,0.09-0.92,0.17-1.63s0.17-1.59,0.29-2.65s0.21-1.86,0.26-2.42s0.09-0.88,0.11-0.98
	c0.01-0.08,0.03-0.22,0.04-0.4s0.04-0.43,0.08-0.74c0.08-0.61,0.14-1.14,0.18-1.58s0.05-0.8,0.05-1.05
	c0.01-0.08,0.02-0.16,0.03-0.23s0.01-0.16,0.01-0.28c0-0.08-0.06-0.23-0.18-0.46c-0.2,0.27-0.43,0.59-0.7,0.95s-0.57,0.77-0.91,1.23
	c-0.69,0.91-1.25,1.67-1.69,2.27c-0.22,0.29-0.44,0.59-0.66,0.88s-0.44,0.59-0.66,0.88s-0.48,0.63-0.76,1.01s-0.61,0.82-0.96,1.31
	c-0.76,1.05-1.52,2.13-2.27,3.22c-0.04,0.06-0.09,0.15-0.18,0.26s-0.19,0.27-0.32,0.46c-0.26,0.39-0.4,0.6-0.44,0.63
	c-0.82,1.08-1.58,1.72-2.27,1.92c-1.12-0.33-1.89-0.84-2.3-1.55c-0.11-0.19-0.2-0.35-0.27-0.49s-0.15-0.27-0.22-0.4
	s-0.14-0.25-0.21-0.37s-0.15-0.25-0.23-0.4c-0.23-0.41-0.45-0.79-0.63-1.12s-0.36-0.64-0.51-0.91c-0.29-0.54-0.58-1.12-0.86-1.73
	s-0.54-1.26-0.77-1.92c-0.14-0.45-0.26-0.81-0.35-1.1s-0.16-0.5-0.21-0.62c-0.05-0.14-0.11-0.33-0.18-0.56s-0.15-0.52-0.25-0.84
	s-0.2-0.66-0.31-1s-0.23-0.69-0.34-1.04c-0.23-0.74-0.36-1.14-0.39-1.2c-0.08,0.33-0.2,0.74-0.34,1.25s-0.3,1.04-0.46,1.61
	s-0.31,1.14-0.47,1.71s-0.28,1.09-0.39,1.55c-0.12,0.47-0.23,0.91-0.33,1.33s-0.2,0.81-0.29,1.19c-0.2,0.73-0.5,1.87-0.9,3.43
	c-0.26,0.98-0.39,1.96-0.39,2.92c0,0.2,0.02,0.47,0.05,0.8s0.09,0.74,0.18,1.22c0.08,0.47,0.14,0.89,0.18,1.27s0.05,0.7,0.05,0.98
	c0,0.3-0.16,0.69-0.47,1.14c-0.32,0.45-0.63,0.67-0.93,0.67c-0.11,0-0.26-0.01-0.47-0.04s-0.38-0.04-0.49-0.04
	c-0.66,0-1.13-0.39-1.42-1.18c-0.29-0.77-0.44-1.58-0.44-2.43c0-0.23,0.06-0.58,0.18-1.04c0.06-0.23,0.13-0.52,0.21-0.85
	s0.18-0.71,0.28-1.12c0.12-0.41,0.21-0.73,0.26-0.97s0.09-0.38,0.11-0.42c0.26-1,0.49-1.89,0.7-2.68s0.4-1.49,0.56-2.1
	s0.33-1.25,0.51-1.91s0.36-1.36,0.56-2.1c0.23-0.84,0.44-1.56,0.61-2.14s0.31-1.15,0.41-1.71c0.09-0.64,0.16-1.08,0.21-1.3
	c0.06-0.29,0.14-0.59,0.25-0.9s0.22-0.61,0.35-0.91c0.26-0.63,0.59-0.95,0.98-0.95c0.87,0,1.56,0.08,2.07,0.25
	c0.5,0.15,0.93,0.53,1.27,1.14c0.16,0.27,0.3,0.54,0.42,0.82s0.22,0.56,0.3,0.85c0.08,0.28,0.17,0.61,0.26,0.98s0.19,0.79,0.28,1.26
	c0.05,0.25,0.12,0.49,0.21,0.72s0.19,0.5,0.3,0.79c0.9,2.75,2.26,5.49,4.06,8.21c0.06-0.06,0.25-0.2,0.56-0.42
	c0.15-0.12,0.28-0.22,0.4-0.32s0.2-0.19,0.27-0.28c0.16-0.2,0.33-0.42,0.51-0.68s0.35-0.53,0.51-0.83c0.35-0.61,0.68-1.18,0.99-1.71
	s0.66-1,1.05-1.42c0.19-0.2,0.41-0.45,0.66-0.76s0.54-0.68,0.87-1.1s0.62-0.79,0.87-1.11s0.46-0.57,0.62-0.77
	c0.2-0.22,0.38-0.44,0.55-0.65s0.33-0.42,0.48-0.62s0.33-0.43,0.52-0.69s0.41-0.54,0.64-0.86c0.11-0.13,0.28-0.33,0.51-0.62
	c0.12-0.14,0.22-0.27,0.31-0.38s0.16-0.21,0.22-0.29c0.21-0.29,0.44-0.63,0.69-1s0.52-0.81,0.82-1.3c0.3-0.49,0.57-0.92,0.81-1.27
	s0.43-0.65,0.6-0.89C81.4,0.05,81.53,0,81.7,0c0.16-0.01,0.38,0.04,0.65,0.14s0.53,0.24,0.78,0.4s0.47,0.33,0.64,0.5
	S84.03,1.37,84.01,1.51z"/>
</svg>
